<svg width="22" height="23" viewBox="0 0 22 23" fill="none" xmlns="http://www.w3.org/2000/svg">
<path d="M8.53603 3.41C8.53603 2.355 9.48603 1.5 10.66 1.5C11.833 1.5 12.784 2.355 12.784 3.41C12.784 3.905 12.604 4.357 12.292 4.697C11.695 5.347 10.802 6.002 10.802 6.845V7.13M10.802 7.13C11.5417 7.11824 12.2676 7.33092 12.884 7.74L20.317 12.75C21.623 13.632 20.93 15.5 19.297 15.5H17M10.802 7.13C10.0686 7.13476 9.35369 7.36097 8.75103 7.779L1.65503 12.77C0.383027 13.665 1.08703 15.5 2.70303 15.5H5.00003" stroke="black" stroke-width="1.5" stroke-linecap="round"/>
<path d="M5 17.5C5 15.614 5 14.672 5.586 14.086C6.172 13.5 7.114 13.5 9 13.5H13C14.886 13.5 15.828 13.5 16.414 14.086C17 14.672 17 15.614 17 17.5C17 19.386 17 20.328 16.414 20.914C15.828 21.5 14.886 21.5 13 21.5H9C7.114 21.5 6.172 21.5 5.586 20.914C5 20.328 5 19.386 5 17.5Z" stroke="black" stroke-width="1.5"/>
</svg>
