<svg width="69" height="18" viewBox="0 0 69 18" fill="none" xmlns="http://www.w3.org/2000/svg">
<path d="M0.0606356 13.5V0.409091H5.22541C6.21405 0.409091 7.0578 0.585937 7.75666 0.93963C8.45978 1.28906 8.99458 1.78551 9.36106 2.42898C9.7318 3.06818 9.91717 3.82031 9.91717 4.68537C9.91717 5.55469 9.72967 6.30256 9.35467 6.92898C8.97967 7.55114 8.43635 8.02841 7.7247 8.3608C7.01731 8.69318 6.16078 8.85938 5.1551 8.85938H1.697V6.63494H4.70765C5.23606 6.63494 5.67498 6.5625 6.02441 6.41761C6.37385 6.27273 6.63379 6.0554 6.80424 5.76562C6.97896 5.47585 7.06632 5.11577 7.06632 4.68537C7.06632 4.25071 6.97896 3.88423 6.80424 3.58594C6.63379 3.28764 6.37172 3.06179 6.01802 2.90838C5.66859 2.75071 5.22754 2.67188 4.69487 2.67188H2.82839V13.5H0.0606356ZM7.13024 7.54261L10.3838 13.5H7.32839L4.14515 7.54261H7.13024ZM18.1182 9.3196V3.68182H20.8412V13.5H18.2268V11.7166H18.1246C17.903 12.2919 17.5344 12.7543 17.0187 13.1037C16.5074 13.4531 15.8831 13.6278 15.1459 13.6278C14.4896 13.6278 13.9122 13.4787 13.4136 13.1804C12.915 12.8821 12.5251 12.4581 12.2439 11.9084C11.9669 11.3587 11.8263 10.7003 11.822 9.93324V3.68182H14.545V9.44744C14.5493 10.027 14.7048 10.4851 15.0116 10.8217C15.3184 11.1584 15.7297 11.3267 16.2453 11.3267C16.5734 11.3267 16.8802 11.2521 17.1657 11.103C17.4513 10.9496 17.6814 10.7237 17.8561 10.4254C18.0351 10.1271 18.1224 9.75852 18.1182 9.3196ZM25.7423 7.82386V13.5H23.0193V3.68182H25.6144V5.41406H25.7295C25.9468 4.84304 26.3112 4.39133 26.8225 4.05895C27.3339 3.7223 27.9539 3.55398 28.6826 3.55398C29.3644 3.55398 29.9589 3.70312 30.466 4.00142C30.9731 4.29972 31.3673 4.72585 31.6485 5.27983C31.9298 5.82955 32.0704 6.4858 32.0704 7.24858V13.5H29.3474V7.73438C29.3517 7.13352 29.1982 6.66477 28.8872 6.32812C28.5761 5.98722 28.1478 5.81676 27.6024 5.81676C27.2359 5.81676 26.912 5.8956 26.6308 6.05327C26.3538 6.21094 26.1365 6.44105 25.9788 6.74361C25.8254 7.0419 25.7465 7.40199 25.7423 7.82386ZM36.1533 13.5L33.4814 3.68182H36.2364L37.7577 10.2784H37.8472L39.4324 3.68182H42.1363L43.7471 10.2401H43.8302L45.3259 3.68182H48.0745L45.409 13.5H42.5262L40.8387 7.32528H40.7172L39.0297 13.5H36.1533ZM52.3268 13.6854C51.7004 13.6854 51.1421 13.5767 50.6521 13.3594C50.162 13.1378 49.7742 12.8118 49.4887 12.3814C49.2075 11.9467 49.0669 11.4055 49.0669 10.7578C49.0669 10.2124 49.167 9.75426 49.3673 9.38352C49.5676 9.01278 49.8403 8.71449 50.1855 8.48864C50.5306 8.26278 50.9227 8.09233 51.3616 7.97727C51.8048 7.86222 52.2693 7.78125 52.7551 7.73438C53.3261 7.67472 53.7863 7.61932 54.1357 7.56818C54.4852 7.51278 54.7387 7.43182 54.8964 7.32528C55.0541 7.21875 55.1329 7.06108 55.1329 6.85227V6.81392C55.1329 6.40909 55.0051 6.09588 54.7494 5.87429C54.498 5.6527 54.14 5.5419 53.6755 5.5419C53.1855 5.5419 52.7955 5.65057 52.5058 5.8679C52.216 6.08097 52.0242 6.34943 51.9305 6.6733L49.412 6.46875C49.5399 5.87216 49.7913 5.35653 50.1663 4.92188C50.5413 4.48295 51.0249 4.14631 51.6173 3.91193C52.2139 3.6733 52.9042 3.55398 53.6883 3.55398C54.2338 3.55398 54.7558 3.6179 55.2544 3.74574C55.7572 3.87358 56.2025 4.07173 56.5903 4.3402C56.9823 4.60866 57.2913 4.95384 57.5171 5.37571C57.743 5.79332 57.8559 6.29403 57.8559 6.87784V13.5H55.2735V12.1385H55.1968C55.0392 12.4453 54.8282 12.7159 54.564 12.9503C54.2998 13.1804 53.9823 13.3615 53.6116 13.4936C53.2409 13.6214 52.8126 13.6854 52.3268 13.6854ZM53.1066 11.8061C53.5072 11.8061 53.8609 11.7273 54.1677 11.5696C54.4745 11.4077 54.7153 11.1903 54.89 10.9176C55.0647 10.6449 55.1521 10.3359 55.1521 9.99077V8.94886C55.0669 9.00426 54.9497 9.0554 54.8005 9.10227C54.6556 9.14489 54.4916 9.18537 54.3083 9.22372C54.1251 9.25781 53.9419 9.28977 53.7586 9.3196C53.5754 9.34517 53.4092 9.36861 53.26 9.38991C52.9404 9.43679 52.6613 9.51136 52.4227 9.61364C52.184 9.71591 51.9987 9.8544 51.8666 10.0291C51.7345 10.1996 51.6684 10.4126 51.6684 10.6683C51.6684 11.0391 51.8026 11.3224 52.0711 11.5185C52.3438 11.7102 52.689 11.8061 53.1066 11.8061ZM61.298 17.1818C60.9529 17.1818 60.629 17.1541 60.3264 17.0987C60.0281 17.0476 59.781 16.9815 59.585 16.9006L60.1986 14.8679C60.5182 14.9659 60.8058 15.0192 61.0615 15.0277C61.3215 15.0362 61.5452 14.9766 61.7327 14.8487C61.9244 14.7209 62.08 14.5036 62.1993 14.1967L62.3591 13.7812L58.8371 3.68182H61.7007L63.7334 10.892H63.8357L65.8875 3.68182H68.7703L64.9543 14.5611C64.771 15.0895 64.5218 15.5497 64.2064 15.9418C63.8953 16.3381 63.5012 16.6428 63.0239 16.8558C62.5466 17.0732 61.9713 17.1818 61.298 17.1818Z" fill="black"/>
</svg>
