<svg width="15" height="15" viewBox="0 0 15 15" fill="none" xmlns="http://www.w3.org/2000/svg">
<path d="M9.75251 8.83583L7.25001 11.3442L4.74751 8.83583C4.63766 8.72598 4.48868 8.66427 4.33334 8.66427C4.178 8.66427 4.02902 8.72598 3.91917 8.83583C3.80933 8.94567 3.74762 9.09465 3.74762 9.24999C3.74762 9.40534 3.80933 9.55432 3.91917 9.66416L6.83584 12.5808C6.89007 12.6355 6.95459 12.6789 7.02567 12.7085C7.09675 12.7381 7.173 12.7534 7.25001 12.7534C7.32701 12.7534 7.40326 12.7381 7.47434 12.7085C7.54543 12.6789 7.60995 12.6355 7.66417 12.5808L10.5808 9.66416C10.6352 9.60977 10.6784 9.5452 10.7078 9.47414C10.7372 9.40308 10.7524 9.32691 10.7524 9.24999C10.7524 9.17308 10.7372 9.09691 10.7078 9.02585C10.6784 8.95479 10.6352 8.89022 10.5808 8.83583C10.5265 8.78144 10.4619 8.7383 10.3908 8.70886C10.3198 8.67942 10.2436 8.66427 10.1667 8.66427C10.0898 8.66427 10.0136 8.67942 9.94253 8.70886C9.87147 8.7383 9.8069 8.78144 9.75251 8.83583ZM4.74751 6.16416L7.25001 3.65583L9.75251 6.16416C9.80674 6.21884 9.87125 6.26223 9.94234 6.29185C10.0134 6.32146 10.0897 6.33671 10.1667 6.33671C10.2437 6.33671 10.3199 6.32146 10.391 6.29185C10.4621 6.26223 10.5266 6.21884 10.5808 6.16416C10.6355 6.10993 10.6789 6.04542 10.7085 5.97433C10.7381 5.90325 10.7534 5.827 10.7534 5.74999C10.7534 5.67299 10.7381 5.59674 10.7085 5.52566C10.6789 5.45457 10.6355 5.39006 10.5808 5.33583L7.66417 2.41916C7.60995 2.36449 7.54543 2.32109 7.47434 2.29147C7.40326 2.26186 7.32701 2.24661 7.25001 2.24661C7.173 2.24661 7.09675 2.26186 7.02567 2.29147C6.95459 2.32109 6.89007 2.36449 6.83584 2.41916L3.91917 5.33583C3.86478 5.39022 3.82164 5.45479 3.79221 5.52585C3.76277 5.59691 3.74762 5.67308 3.74762 5.74999C3.74762 5.90534 3.80933 6.05432 3.91917 6.16416C4.02902 6.27401 4.178 6.33571 4.33334 6.33571C4.48868 6.33571 4.63766 6.27401 4.74751 6.16416Z" fill="black"/>
</svg>
